<svg id="Layer_1" data-name="Layer 1" xmlns="http://www.w3.org/2000/svg" viewBox="0 0 456.48 469.46"><defs><style>.cls-1{fill:#071952;}.cls-2{fill:#00ffca;}</style></defs><title>busqr-logo</title><path class="cls-1" d="M188.8,223.6H78.22a31.47,31.47,0,0,1-31.43-31.43V81.58A31.47,31.47,0,0,1,78.22,50.15H188.8a31.47,31.47,0,0,1,31.43,31.43V192.17A31.47,31.47,0,0,1,188.8,223.6ZM78.22,71.11A10.49,10.49,0,0,0,67.74,81.58V192.17a10.49,10.49,0,0,0,10.48,10.47H188.8a10.49,10.49,0,0,0,10.48-10.47V81.58A10.49,10.49,0,0,0,188.8,71.11Z"/><path class="cls-1" d="M378,223.6H267.38A31.47,31.47,0,0,1,236,192.17V81.58a31.47,31.47,0,0,1,31.43-31.43H378a31.47,31.47,0,0,1,31.43,31.43V192.17A31.47,31.47,0,0,1,378,223.6ZM267.38,71.11A10.49,10.49,0,0,0,256.9,81.58V192.17a10.49,10.49,0,0,0,10.48,10.47H378a10.49,10.49,0,0,0,10.48-10.47V81.58A10.49,10.49,0,0,0,378,71.11Z"/><path class="cls-1" d="M188.8,412.76H78.22a31.47,31.47,0,0,1-31.43-31.43V270.74a31.47,31.47,0,0,1,31.43-31.43H188.8a31.47,31.47,0,0,1,31.43,31.43V381.33A31.47,31.47,0,0,1,188.8,412.76ZM78.22,260.27a10.49,10.49,0,0,0-10.48,10.47V381.33A10.49,10.49,0,0,0,78.22,391.8H188.8a10.49,10.49,0,0,0,10.48-10.47V270.74a10.49,10.49,0,0,0-10.48-10.47Z"/><path class="cls-2" d="M378.26,241.93H267.67a28.84,28.84,0,0,0-28.81,28.81V381.33a28.86,28.86,0,0,0,25.36,28.6,17,17,0,0,0,33.64.21h49.71A17,17,0,0,0,381.2,410a28.85,28.85,0,0,0,25.87-28.66V270.74A28.85,28.85,0,0,0,378.26,241.93Zm-80.18,138a2,2,0,0,1-2,2H266a2,2,0,0,1-2-2V365.56a2,2,0,0,1,2-2h30.05a2,2,0,0,1,2,2Zm83.82,0a2,2,0,0,1-2,2h-30a2,2,0,0,1-2-2V365.56a2,2,0,0,1,2-2h30a2,2,0,0,1,2,2Zm0-50.58a2,2,0,0,1-2,2H266a2,2,0,0,1-2-2V267.83a2,2,0,0,1,2-2H379.9a2,2,0,0,1,2,2Z"/><path class="cls-2" d="M210,469.46H54.11A54.17,54.17,0,0,1,0,415.35V54.11A54.17,54.17,0,0,1,54.11,0H402.37a54.17,54.17,0,0,1,54.11,54.11v155a6.55,6.55,0,0,1-13.1,0v-155a41.05,41.05,0,0,0-41-41H54.11a41,41,0,0,0-41,41V415.35a41.05,41.05,0,0,0,41,41H210a6.55,6.55,0,1,1,0,13.1Z"/><path class="cls-1" d="M414.56,469.46H246a6.55,6.55,0,0,1,0-13.1H414.56a28.85,28.85,0,0,0,28.82-28.82V251.6a6.55,6.55,0,0,1,13.1,0V427.54A42,42,0,0,1,414.56,469.46Z"/></svg>